<svg fill="#00BFFF" version="1.1" id="Capa_1" xmlns="http://www.w3.org/2000/svg" xmlns:xlink="http://www.w3.org/1999/xlink" width="800px" height="800px" viewBox="0 0 568.167 568.167" xml:space="preserve">
<g> <path d="M327.98,144.779h-0.341c0.066-0.91,0.146-1.814,0.146-2.731V65.559c0-0.917-0.086-1.827-0.146-2.731h4.244 c17.348,0,31.408-14.06,31.408-31.414C363.292,14.069,349.231,0,331.883,0h-89.794c-17.342,0-31.408,14.069-31.408,31.414 c0,17.354,10.982,31.414,28.333,31.414h6.96c-0.058,0.904-0.131,1.815-0.131,2.731v76.489c0,0.917,0.079,1.821,0.131,2.731h-5.788 c-30.178,0-54.632,24.454-54.632,54.629v314.127c0,30.179,24.454,54.632,54.632,54.632h87.793 c30.172,0,54.632-24.453,54.632-54.632V199.408C382.612,169.233,358.152,144.779,327.98,144.779z"/> </g>
</svg>

